<svg xmlns="http://www.w3.org/2000/svg" width="24" height="24" viewBox="0 0 24 24">
    <defs>
        <clipPath id="prefix__clip-path">
            <path id="prefix__Rectangle_12" d="M0 0H24V24H0z" data-name="Rectangle 12" style="fill:#fff"/>
        </clipPath>
    </defs>
    <g id="prefix__iconfinder_Circled_Facebook_svg_5279111_1" data-name="iconfinder_Circled_Facebook_svg_5279111 1">
        <path id="prefix__Path_1" d="M11.954 24zm.085 0zm-.121 0zm.16 0zm-.2 0zm.234 0zm.039 0zm-.318 0zm.356 0zm-.389 0zm.433 0zm-.468 0zm-.044 0zm.55 0zm-.589 0zm.628 0zm.039 0zm-.7 0zm-.034 0zm.774 0zm.039 0zm-.861 0zm-.035 0zm.935 0zm-.969 0zm1.008 0zm-1.056 0zm1.094 0zm-1.129 0zm1.167 0zm-1.2 0zm1.24 0zm.038 0zm-1.309 0zm1.347 0zm-1.4 0zm-.034 0zm1.471 0zm-1.5 0zm1.542 0zm.038 0zm-1.629 0zm-.034 0zm1.7 0zm-1.735 0zm1.773 0zm-1.818 0zm1.856 0zm.038 0zm-1.929 0zm-.034 0zm2 0zm-2.039 0zm2.077 0zm.038 0zm-2.155 0zm-.035 0zm2.228 0zm-2.988-.095a12 12 0 113.75 0v-8.436h2.8L17.2 12h-3.325V9.749a1.734 1.734 0 011.956-1.874h1.513V4.922a18.454 18.454 0 00-2.686-.234c-2.741 0-4.533 1.661-4.533 4.669V12H7.078v3.469h3.047z" data-name="Path 1" style="fill-rule:evenodd;fill:#fff"/>
    </g>
</svg>
