<svg xmlns="http://www.w3.org/2000/svg" width="24" height="24" viewBox="0 0 24 24">
    <path id="prefix__iconfinder_Circled_Instagram_svg_5279112_1" d="M12 0A12 12 0 110 12 12.006 12.006 0 0112 0zm0 4.5c-2.037 0-2.292.009-3.092.045a5.506 5.506 0 00-1.821.349 3.835 3.835 0 00-2.193 2.193 5.506 5.506 0 00-.349 1.821C4.509 9.708 4.5 9.963 4.5 12s.009 2.292.045 3.092a5.507 5.507 0 00.349 1.821 3.835 3.835 0 002.193 2.194 5.51 5.51 0 001.821.349c.8.036 1.055.045 3.092.045s2.292-.009 3.092-.045a5.51 5.51 0 001.821-.349 3.836 3.836 0 002.194-2.194 5.51 5.51 0 00.349-1.821c.036-.8.045-1.055.045-3.092s-.009-2.292-.045-3.092a5.509 5.509 0 00-.349-1.821 3.835 3.835 0 00-2.194-2.193 5.506 5.506 0 00-1.821-.349c-.8-.036-1.055-.045-3.092-.045zm0 1.351c2 0 2.24.008 3.031.044a4.15 4.15 0 011.393.258 2.484 2.484 0 011.423 1.423 4.149 4.149 0 01.253 1.393c.036.791.044 1.028.044 3.031s-.008 2.24-.044 3.031a4.149 4.149 0 01-.258 1.393 2.485 2.485 0 01-1.423 1.423 4.149 4.149 0 01-1.393.258c-.791.036-1.028.044-3.031.044s-2.24-.008-3.031-.044a4.149 4.149 0 01-1.393-.258 2.484 2.484 0 01-1.423-1.423 4.15 4.15 0 01-.248-1.393C5.859 14.24 5.851 14 5.851 12s.008-2.24.044-3.031a4.149 4.149 0 01.258-1.393 2.484 2.484 0 011.424-1.423A4.15 4.15 0 018.969 5.9C9.76 5.859 10 5.851 12 5.851zm0 2.3A3.851 3.851 0 1015.851 12 3.851 3.851 0 0012 8.149zm0 6.349a2.5 2.5 0 112.5-2.5 2.5 2.5 0 01-2.5 2.5zM16.9 8a.9.9 0 11-.9-.9.9.9 0 01.9.9z" data-name="iconfinder_Circled_Instagram_svg_5279112 1" style="fill:#fff;fill-rule:evenodd"/>
</svg>
