<svg xmlns="http://www.w3.org/2000/svg">
    <symbol viewBox="0 0 20.019 11.974" id="submit-arrow">
        <path d="M1268.628 296.986a.983.983 0 01-.41-1.552l2.745-3.434H1254v-2h16.866v-.046l-2.645-3.311a1 1 0 111.569-1.255l4.013 5.024a1.006 1.006 0 010 1.255l-4.013 5.023a.984.984 0 01-.424.3z" transform="translate(-1254 -285.011)" style="fill:#fff"/>
    </symbol>

    <symbol viewBox="0 0 5.986 9.999" id="pag-next">
        <path d="M1364.993 626l-4.9 5-1.088-1.111 3.809-3.888-3.809-3.889 1.088-1.112 4.354 4.444z" transform="translate(-1359.007 -620.996)"/>
    </symbol>
    <symbol viewBox="0 0 5.986 9.999" id="pag-prev">
        <path d="M947.007 626l4.9 5 1.088-1.111-3.811-3.889 3.809-3.889-1.088-1.111-4.354 4.444z" transform="translate(-947.007 -620.996)"/>
    </symbol>
    <symbol viewBox="0 0 32 32" id="team-close">
        <g id="prefix__cross-out" transform="translate(-.005)">
            <path id="prefix__Path_7" d="M32 1l-1-1-15 15L1 0 0 1l15 15L0 31l1 1 15-15 15 15 1-1-15-15z" data-name="Path 7" style="fill:#010002"/>
        </g>
    </symbol>
    <symbol viewBox="0 0 17.384 24" id="placemark"> 
        <g id="prefix___001-maps-and-flags" data-name="001-maps-and-flags" transform="translate(-70.573)">
            <g id="prefix__Group_406" data-name="Group 406" transform="translate(70.573)">
                <path id="prefix__Path_40" d="M79.265 0a8.7 8.7 0 0 0-8.692 8.692c0 5.948 7.778 14.68 8.11 15.049a.783.783 0 0 0 1.165 0c.331-.369 8.11-9.1 8.11-15.049A8.7 8.7 0 0 0 79.265 0zm0 13.065a4.373 4.373 0 1 1 4.373-4.373 4.378 4.378 0 0 1-4.373 4.373z" data-name="Path 40" transform="translate(-70.573)"/>
            </g>
        </g>
    </symbol>

    <symbol viewBox="0 0 23.95 24" id="phone">
        <g id="prefix___002-phone-call" data-name="002-phone-call" transform="translate(-.539)">
            <g id="prefix__Group_407" data-name="Group 407" transform="translate(.539)">
                <path id="prefix__Path_41" d="M23.861 17.614l-3.349-3.349a2.228 2.228 0 0 0-3.712.835 2.279 2.279 0 0 1-2.632 1.435c-2.392-.6-5.622-3.708-6.22-6.22a2.168 2.168 0 0 1 1.439-2.63 2.228 2.228 0 0 0 .837-3.708L6.875.628a2.389 2.389 0 0 0-3.23 0L1.373 2.9c-2.273 2.393.239 8.733 5.861 14.355s11.966 8.253 14.354 5.861l2.273-2.273a2.389 2.389 0 0 0 0-3.229z" data-name="Path 41" transform="translate(-.539)"/>
            </g>
        </g>
        
    </symbol>
</svg>