<svg xmlns="http://www.w3.org/2000/svg" width="23.999" height="24" viewBox="0 0 23.999 24">
    <path id="prefix__Subtraction_1" d="M-1674 81a11.922 11.922 0 01-8.485-3.515A11.921 11.921 0 01-1686 69a11.923 11.923 0 013.514-8.486A11.921 11.921 0 01-1674 57a11.921 11.921 0 018.485 3.515A11.923 11.923 0 01-1662 69a11.921 11.921 0 01-3.514 8.485A11.921 11.921 0 01-1674 81zm-6.693-8.114a.225.225 0 00-.211.148.222.222 0 00.09.263 8.007 8.007 0 004.331 1.27 7.708 7.708 0 005.97-2.623 8.313 8.313 0 002.068-5.416v-.246a5.776 5.776 0 001.328-1.407.222.222 0 00-.014-.268.223.223 0 00-.171-.079.22.22 0 00-.09.019 5.246 5.246 0 01-.67.244 2.92 2.92 0 00.6-1.059.223.223 0 00-.073-.242.226.226 0 00-.139-.049.22.22 0 00-.114.031 5.275 5.275 0 01-1.557.615 3 3 0 00-2.078-.847 2.973 2.973 0 00-2.97 2.969 3.065 3.065 0 00.024.384 7.631 7.631 0 01-5.218-2.768.225.225 0 00-.174-.083h-.016a.226.226 0 00-.176.11 2.975 2.975 0 00-.4 1.494 2.973 2.973 0 00.707 1.925 2.475 2.475 0 01-.4-.178.223.223 0 00-.108-.028.227.227 0 00-.112.03.224.224 0 00-.112.188v.041a2.987 2.987 0 001.454 2.553 2.558 2.558 0 01-.226-.032.222.222 0 00-.043 0 .219.219 0 00-.166.075.222.222 0 00-.046.216 2.981 2.981 0 002.175 1.991 5.284 5.284 0 01-2.808.8 5.42 5.42 0 01-.629-.037z" data-name="Subtraction 1" transform="translate(1686 -57)" style="fill:#fff"/>
</svg>
