<svg xmlns="http://www.w3.org/2000/svg" width="23.999" height="24" viewBox="0 0 23.999 24">
    <path id="prefix__Subtraction_2" d="M-1674 81a11.922 11.922 0 01-8.485-3.515A11.921 11.921 0 01-1686 69a11.923 11.923 0 013.514-8.486A11.921 11.921 0 01-1674 57a11.921 11.921 0 018.485 3.515A11.923 11.923 0 01-1662 69a11.921 11.921 0 01-3.514 8.485A11.921 11.921 0 01-1674 81zm-2.88-16.45c-1.678 0-2.551.24-3.013.828a4.226 4.226 0 00-.452 2.59V70.2c0 2.267.536 3.418 3.465 3.418h5.953a3.75 3.75 0 002.72-.687c.523-.5.746-1.317.746-2.731v-2.23a4.119 4.119 0 00-.5-2.641c-.465-.552-1.324-.778-2.964-.778zm1.911 6.3a.415.415 0 01-.216-.06.416.416 0 01-.2-.356v-2.815a.415.415 0 01.2-.355.418.418 0 01.217-.061.419.419 0 01.191.047l2.7 1.4a.413.413 0 01.224.368.415.415 0 01-.223.369l-2.7 1.413a.416.416 0 01-.193.051z" data-name="Subtraction 2" transform="translate(1686 -57)" style="fill:#fff"/>
</svg>
