<svg xmlns="http://www.w3.org/2000/svg" width="76.069" height="46.264" viewBox="0 0 76.069 46.264">
    <defs>
        <style>
            .prefix__cls-2{fill:#005789}.prefix__cls-3,.prefix__cls-4{fill:#3c5f88}.prefix__cls-3{stroke:#fff;stroke-miterlimit:10;stroke-width:.5px}.prefix__cls-5{fill:#fff}
        </style>
    </defs>
    <g id="prefix__Layer_2" data-name="Layer 2" transform="translate(-2.742 -2.735)">
        <g id="prefix__Layer_3" data-name="Layer 3" transform="translate(2.997 2.999)">
            <circle id="prefix__Ellipse_7" cx="6.249" cy="6.249" r="6.249" data-name="Ellipse 7" transform="translate(57.854 33.502)" style="fill:#cc2829"/>
            <path id="prefix__Path_42" d="M905.43 236.45l-.68.631.292.146.972-.486z" class="prefix__cls-2" data-name="Path 42" transform="translate(-834.048 -218.152)"/>
            <g id="prefix__c_j_djlrjq" data-name="c j,djlrjq">
                <path id="prefix__Path_43" d="M232.412 307.329q-.317-.2-.645-.389a13.13 13.13 0 0 0-4.488-1.549l-.078.107q-.262.363-.54.715-.623.785-1.314 1.506a20.613 20.613 0 0 1-4.217 3.368 4.491 4.491 0 0 1 1.3 6.673l2.6 4.318 5.605 2.974 2.226 1.18 8.33.018-.059-.631a5.468 5.468 0 0 0-4.84-4.221c-.181.016-.364.026-.549.026-.156 0-.3-.008-.452-.019h-.037a6.14 6.14 0 0 1-5.615-5.45l3.243-3.108 2.386-3.205-.978-.853q-.462-.376-.9-.775-.476-.363-.978-.685z" class="prefix__cls-3" data-name="Path 43" transform="translate(-203.994 -281.544)"/>
                <path id="prefix__Path_44" d="M77.318 15.448l.111-1.867-1.662-3.537-.1-.209a16.423 16.423 0 0 0-.726-3.549c-.392-.832-2.175-1.6-2.175-1.6a25.484 25.484 0 0 0-3.3 1.541 12.8 12.8 0 0 0-7.74 11.444c-.4-5.538 1.854-8.334 5.91-11.705a18.389 18.389 0 0 1 2.273-1.617q.618-.372 1.264-.694a12.948 12.948 0 0 0-3.325-.648c-.8-.044-3.169.063-3.96.139-5.266 3.044-6.94 8.3-7.235 14.75a18.593 18.593 0 0 1-.131-2.195 18.309 18.309 0 0 1 4.588-12.15 33.534 33.534 0 0 0-6.832 2.159c-3.888 4.546-2.552 11.236-1.8 13.247-2.675-4.292-.812-10.42.031-12.527a41.275 41.275 0 0 0-8.122 4.97L30.96 12.484c-.335-.121-.674-.235-1.019-.341a23.984 23.984 0 0 0-5.164-.992q-.958-.078-1.937-.078a23.945 23.945 0 0 0-15.856 5.979 13.942 13.942 0 0 0-1.546 17.641l-.679 7.784L5.9 44.935l1.309 2.834.006.014h10.016a6.1 6.1 0 0 0-4.986-5.707l-.084-.016.016-.078.4-1.927L12.79 39l.828-4.027a20.547 20.547 0 0 0 6.482-2.535 20.75 20.75 0 0 0 4.245-3.391q.7-.726 1.323-1.517.279-.354.543-.72l.078-.108a13.216 13.216 0 0 1 4.518 1.56q.331.186.65.392.5.324.977.691.444.4.911.78l.04.033a23.065 23.065 0 0 0 13.341 5.135l.143.009q.56.027 1.129.027a23.417 23.417 0 0 0 2.436-.127 23.084 23.084 0 0 0 10.605-3.877c.118-.078.235-.161.351-.243q.266-.188.526-.383.313-.235.617-.478c.06-.048.121-.1.18-.146.122-.1.245-.2.364-.3q.223-.19.438-.383a23.339 23.339 0 0 0 4.534-5.544l.768.3 2.786 1.1 2.306-1.548-.223-.99-2.086-1.428.549-.441 2.216.975-.607.41.147.1 1-.271 1.65.11.77-.88.111-1.21 1.1-1.1zM8.036 30.346a6.421 6.421 0 0 1 2.179-9.774 10.5 10.5 0 0 1 .263 4.664 18.675 18.675 0 0 1-2.442 5.11z" class="prefix__cls-3" data-name="Path 44" transform="translate(-2.997 -2.999)"/>
                <path id="prefix__Path_45" d="M543.889 417.107c-.168 0-.335.009-.5.023l-.03-.068-.731-1.7 1.409-1.868 1.168-4.94a22.984 22.984 0 0 1-2.557.413 23.275 23.275 0 0 1-2.424.127q-.564 0-1.121-.027l-.142-.009a12.034 12.034 0 0 0-.531 11.9q.138.269.288.528h10.787a5.8 5.8 0 0 0-5.616-4.379z" class="prefix__cls-3" data-name="Path 45" transform="translate(-495.197 -376.673)"/>
                <path id="prefix__Path_46" d="M632.964 309.222a7.734 7.734 0 0 0-3.171-4.009 6.814 6.814 0 0 0-3.9-1.077c-.37 0-.645.023-.779.036l-1.6-.951-.027-.009c-3.156-.961-7.756-2.372-8.953-2.768l-.32-.111a5.867 5.867 0 0 1-3.928-5.246l8.759-1.494a3.177 3.177 0 0 0 2.174 2.462l5.257 2.215a9.935 9.935 0 0 1 1.644 1.081l1.07 1 3.572 2.244a11.222 11.222 0 0 1 1.869 1.7 3.708 3.708 0 0 1 .678 2.754v.087a5.54 5.54 0 0 1-1.157 2.278l-.015.021-.033.078c-.049.114-.1.23-.163.343z" class="prefix__cls-4" data-name="Path 46" transform="translate(-562.512 -270.663)"/>
                <path id="prefix__Path_47" d="M616.1 290.656a3.41 3.41 0 0 0 2.273 2.413l.742.311 2.99 1.26 1.5.638a9.673 9.673 0 0 1 1.59 1.046l1.048.983.034.031.038.024 3.543 2.228a10.971 10.971 0 0 1 1.816 1.654 3.494 3.494 0 0 1 .627 2.609v.087a5.592 5.592 0 0 1-1.113 2.142l-.03.041-.02.047-.022.051-.043.1-.691-.446a8.12 8.12 0 0 0-3.235-4.048 7.05 7.05 0 0 0-4.035-1.12c-.316 0-.568.016-.722.03l-1.5-.9-.049-.03-.055-.016c-2.926-.891-7.127-2.18-8.651-2.669l-.611-.212a5.634 5.634 0 0 1-3.758-4.827l8.33-1.421m.378-.538l-9.194 1.565a6.085 6.085 0 0 0 4.092 5.663c-.041.05 9.278 2.886 9.278 2.886l1.64.978a6.865 6.865 0 0 1 .828-.044 6.685 6.685 0 0 1 3.764 1.033 7.287 7.287 0 0 1 3.1 3.965l1.271.821a5.232 5.232 0 0 0 .3-.583l.023-.052a5.6 5.6 0 0 0 1.2-2.413 4.042 4.042 0 0 0-.729-2.988 11.267 11.267 0 0 0-1.919-1.749l-3.559-2.238-1.06-.995a10.069 10.069 0 0 0-1.7-1.113l-1.526-.646-2.99-1.26-.762-.321a2.959 2.959 0 0 1-2.057-2.513z" class="prefix__cls-5" data-name="Path 47" transform="translate(-559.736 -267.463)"/>
            </g>
            <path id="prefix__Rectangle_122" d="M0 0H11.77V4.773H0z" class="prefix__cls-4" data-name="Rectangle 122" transform="translate(46.165 20.449)"/>
            <path id="prefix__Path_48" d="M890.4 249.714l.62-.474.182.037-.292.655z" class="prefix__cls-2" data-name="Path 48" transform="translate(-820.815 -229.94)"/>
            <path id="prefix__Path_49" d="M911.01 141.26l.778.874.729-.729" data-name="Path 49" transform="translate(-839.82 -130.423)" style="fill:none;stroke:#fff;stroke-miterlimit:10;stroke-width:.5px"/>
            <path id="prefix__Path_50" d="M739.8 315.952l-3.6-.972v-.85h5.034z" class="prefix__cls-5" data-name="Path 50" transform="translate(-678.712 -289.74)"/>
        </g>
    </g>
</svg>
