<svg xmlns="http://www.w3.org/2000/svg" width="435.614" height="89.884" viewBox="0 0 435.614 89.884">
    <defs>
        <style>
            .prefix__cls-2{fill:#005789}.prefix__cls-3,.prefix__cls-4{fill:#3c5f88}.prefix__cls-3{stroke:#fff;stroke-miterlimit:10;stroke-width:.5px}.prefix__cls-5{fill:#fff}
        </style>
    </defs>
    <g id="prefix__Layer_2" data-name="Layer 2" transform="translate(-2.738 -2.722)">
        <g id="prefix__Layer_3" data-name="Layer 3" transform="translate(2.997 2.999)">
            <circle id="prefix__Ellipse_8" cx="11.934" cy="11.934" r="11.934" data-name="Ellipse 8" transform="translate(109.533 63.4)" style="fill:#cc2829"/>
            <path id="prefix__Path_51" d="M906.049 236.45l-1.3 1.206.558.278 1.856-.928z" class="prefix__cls-2" data-name="Path 51" transform="translate(-770.679 -201.741)"/>
            <g id="prefix__c_j_djlrjq" data-name="c j,djlrjq">
                <path id="prefix__Path_52" d="M242.676 309.092q-.605-.388-1.233-.743a25.075 25.075 0 0 0-8.571-2.959l-.149.205q-.5.693-1.03 1.365-1.189 1.5-2.51 2.877a39.363 39.363 0 0 1-8.054 6.432 8.577 8.577 0 0 1 2.477 12.743l4.966 8.246 10.7 5.68 4.251 2.254 15.909.034-.113-1.2a10.442 10.442 0 0 0-9.243-8.061c-.346.03-.694.049-1.048.049-.3 0-.578-.015-.864-.036h-.07a11.726 11.726 0 0 1-10.723-10.407l6.192-5.935 4.557-6.121-1.867-1.628q-.883-.718-1.728-1.479-.891-.7-1.849-1.316z" class="prefix__cls-3" data-name="Path 52" transform="translate(-188.698 -260.431)"/>
                <path id="prefix__Path_53" d="M143.994 26.612l.21-3.542-3.153-6.708-.187-.4s-.5-4.869-1.378-6.732c-.743-1.577-4.126-3.03-4.126-3.03a48.351 48.351 0 0 0-6.267 2.923c-8.675 4.129-14.472 11.817-14.683 21.707-.766-10.5 3.518-15.807 11.212-22.2a34.887 34.887 0 0 1 4.312-3.067q1.172-.7 2.4-1.317a24.568 24.568 0 0 0-6.308-1.23c-1.522-.083-6.013.119-7.513.263-9.99 5.773-13.167 15.75-13.726 27.978a35.259 35.259 0 0 1-.248-4.163 34.725 34.725 0 0 1 8.7-23.045c-2.916.627-9.053 2.141-12.962 4.095-7.377 8.626-4.842 21.314-3.41 25.129-5.074-8.14-1.54-19.764.059-23.762a78.306 78.306 0 0 0-15.406 9.425l-25.473 2.053c-.636-.229-1.279-.446-1.933-.647a45.509 45.509 0 0 0-9.8-1.881q-1.818-.149-3.674-.149a45.432 45.432 0 0 0-30.079 11.342 26.442 26.442 0 0 0-2.934 33.462L6.338 77.881 8.5 82.542l2.483 5.375.012.027H30a11.573 11.573 0 0 0-9.459-10.825l-.159-.03.03-.149.752-3.656.41-2 1.572-7.639a38.985 38.985 0 0 0 12.288-4.808 39.364 39.364 0 0 0 8.054-6.432Q44.812 51.03 46 49.53q.529-.672 1.03-1.365l.149-.205a25.076 25.076 0 0 1 8.571 2.959q.627.352 1.233.743.956.614 1.854 1.311.843.763 1.728 1.479c.025.019.051.042.076.062a43.761 43.761 0 0 0 25.31 9.74l.272.016q1.063.052 2.141.052a44.43 44.43 0 0 0 4.621-.242 43.8 43.8 0 0 0 20.12-7.353c.223-.149.446-.3.666-.461q.5-.357 1-.727.595-.446 1.17-.907c.114-.091.229-.183.342-.277.232-.19.464-.384.691-.578q.422-.36.831-.727a44.272 44.272 0 0 0 8.6-10.516l1.457.574 5.286 2.081 4.385-2.923-.422-1.878-3.967-2.713 1.041-.836 4.2 1.85-1.152.778.278.184 1.891-.514 3.131.208 1.46-1.67.21-2.3 2.082-2.082zM12.557 54.87a12.178 12.178 0 0 1 4.135-18.539s1.473 4.95.5 8.846a35.42 35.42 0 0 1-4.635 9.693z" class="prefix__cls-3" data-name="Path 53" transform="translate(-2.997 -2.999)"/>
                <path id="prefix__Path_54" d="M550.057 424.891c-.321 0-.639.016-.953.043l-.058-.129-1.4-3.253 2.691-3.568 2.23-9.434a43.908 43.908 0 0 1-4.883.788 44.464 44.464 0 0 1-4.628.242q-1.076 0-2.141-.052l-.272-.016a22.983 22.983 0 0 0-1.014 22.72q.263.513.55 1.008h20.6a11.068 11.068 0 0 0-10.722-8.349z" class="prefix__cls-3" data-name="Path 54" transform="translate(-457.699 -348.253)"/>
                <path id="prefix__Path_55" d="M653.591 323.443c-.23-.852-1.421-4.358-6.056-7.655a13.013 13.013 0 0 0-7.447-2.056c-.706 0-1.233.043-1.487.068l-3.048-1.817-.052-.016c-6.027-1.835-14.813-4.53-17.1-5.286v-.009l-.611-.211a11.2 11.2 0 0 1-7.5-10.018l16.728-2.853a6.068 6.068 0 0 0 4.151 4.7l10.04 4.23a18.97 18.97 0 0 1 3.14 2.064l2.044 1.918 6.821 4.286a21.425 21.425 0 0 1 3.568 3.25c1.295 1.619 1.295 2.913 1.295 5.26v.167c0 1.259-1.487 3.347-2.209 4.35l-.028.04-.062.149c-.094.219-.2.439-.312.656z" class="prefix__cls-4" data-name="Path 55" transform="translate(-519.999 -250.385)"/>
                <path id="prefix__Path_56" d="M624.121 291.143a6.512 6.512 0 0 0 4.341 4.609l1.417.595 5.711 2.406 2.871 1.219a18.48 18.48 0 0 1 3.036 2l2 1.878.064.059.073.046 6.766 4.255a20.956 20.956 0 0 1 3.469 3.158c1.2 1.5 1.2 2.661 1.2 4.982v.167c0 1.117-1.487 3.2-2.126 4.092l-.057.079-.039.089-.042.1-.082.186-1.319-.852c-.345-1.134-1.7-4.55-6.178-7.731a13.464 13.464 0 0 0-7.706-2.138c-.6 0-1.084.031-1.378.058l-2.87-1.72-.094-.057-.1-.031c-5.587-1.7-13.611-4.163-16.521-5.1l-1.167-.4a10.76 10.76 0 0 1-7.177-9.218l15.909-2.713m.721-1.027l-17.559 2.988a11.621 11.621 0 0 0 7.815 10.815c-.079.1 17.719 5.512 17.719 5.512l3.131 1.867a13.122 13.122 0 0 1 1.58-.083 12.767 12.767 0 0 1 7.189 1.973c5.128 3.65 5.923 7.572 5.923 7.572l2.428 1.569a10.01 10.01 0 0 0 .563-1.114l.043-.1c.807-1.13 2.293-3.219 2.293-4.609 0-2.459.033-3.924-1.393-5.706a21.525 21.525 0 0 0-3.665-3.339l-6.8-4.275-2.025-1.9a19.225 19.225 0 0 0-3.238-2.125l-2.914-1.234-5.711-2.406-1.456-.613a5.65 5.65 0 0 1-3.928-4.8z" class="prefix__cls-5" data-name="Path 56" transform="translate(-517.436 -247.431)"/>
            </g>
            <path id="prefix__Rectangle_123" d="M0 0H22.477V9.115H0z" class="prefix__cls-4" data-name="Rectangle 123" transform="translate(87.474 38.765)"/>
            <path id="prefix__Path_57" d="M890.4 250.145l1.183-.905.348.07-.558 1.252z" class="prefix__cls-2" data-name="Path 57" transform="translate(-758.462 -212.629)"/>
            <path id="prefix__Path_58" d="M911.01 141.26l1.485 1.67 1.392-1.392" data-name="Path 58" transform="translate(-776.008 -120.704)" style="fill:none;stroke:#fff;stroke-miterlimit:10;stroke-width:.5px"/>
            <path id="prefix__Path_59" d="M743.076 317.609l-6.876-1.855v-1.624h9.614z" class="prefix__cls-5" data-name="Path 59" transform="translate(-627.189 -267.872)"/>
            <path id="prefix__Path_60" d="M1136.316 157.8l-1.6.275v11.228h1.86v4.944h-1.909v-3.436h-12.34v-1.231l1.6-.274v-11.228l-1.6-.275v-1.243h5.119v1.24l-1.6.275v11.228h6.931v-11.225l-1.583-.275v-1.243h5.12z" class="prefix__cls-4" data-name="Path 60" transform="translate(-955.909 -133.729)"/>
            <path id="prefix__Path_61" d="M1228.166 190.863a4.468 4.468 0 0 1-3.519-1.473 5.546 5.546 0 0 1-1.307-3.823v-.431a5.429 5.429 0 0 1 1.346-3.763 4.152 4.152 0 0 1 3.188-1.5 4.018 4.018 0 0 1 3.235 1.292 5.122 5.122 0 0 1 1.1 3.446v1.2h-6.873l-.03.049a4.2 4.2 0 0 0 .775 2.51 2.459 2.459 0 0 0 2.082.984 4.862 4.862 0 0 0 1.719-.278 4 4 0 0 0 1.277-.769l.754 1.252a4.635 4.635 0 0 1-1.5.926 6.006 6.006 0 0 1-2.247.378zm-.3-9.477a2.09 2.09 0 0 0-1.655.818 3.866 3.866 0 0 0-.841 2.052l.019.049h4.886v-.253a2.956 2.956 0 0 0-.607-1.9 2.153 2.153 0 0 0-1.8-.767z" class="prefix__cls-4" data-name="Path 61" transform="translate(-1041.901 -153.573)"/>
            <path id="prefix__Path_62" d="M1291.8 182.424v-1.244h5.12v1.244l-1.6.274v3.064h4.709V182.7l-1.6-.274v-1.246h5.137v1.244l-1.6.274v7.568l1.6.274v1.234h-5.129v-1.234l1.6-.274v-3h-4.709v3l1.6.274v1.234h-5.128v-1.234l1.6-.274V182.7z" class="prefix__cls-4" data-name="Path 62" transform="translate(-1100.183 -154.688)"/>
            <path id="prefix__Path_63" d="M1390.021 181.18v3.153h-1.653l-.149-1.655h-2.272v7.583l1.6.274v1.234h-5.12v-1.234l1.6-.274v-7.583h-2.23l-.149 1.655H1380v-3.153z" class="prefix__cls-4" data-name="Path 63" transform="translate(-1175.269 -154.688)"/>
            <path id="prefix__Path_64" d="M1455.73 193.482l1.6-.275v-11.63l-1.6-.274v-1.243h3.25l.177 1.294a3.55 3.55 0 0 1 1.288-1.106 3.84 3.84 0 0 1 1.756-.382 3.521 3.521 0 0 1 3.06 1.561 7.066 7.066 0 0 1 1.091 4.127v.205a5.835 5.835 0 0 1-1.1 3.695 3.629 3.629 0 0 1-3.026 1.405 4.2 4.2 0 0 1-1.717-.327 3.308 3.308 0 0 1-1.258-.975v3.652l1.6.275v1.243h-5.12zm8.684-7.929a5.649 5.649 0 0 0-.706-2.974 2.286 2.286 0 0 0-2.095-1.155 2.582 2.582 0 0 0-1.409.373 2.792 2.792 0 0 0-.949 1.017v5.159a2.661 2.661 0 0 0 .944 1.014 2.7 2.7 0 0 0 1.435.357 2.4 2.4 0 0 0 2.081-1 4.336 4.336 0 0 0 .706-2.594z" class="prefix__cls-4" data-name="Path 64" transform="translate(-1239.74 -153.568)"/>
            <path id="prefix__Path_65" d="M1570.89 193.482l1.6-.275v-11.63l-1.6-.274v-1.244h3.252l.175 1.294a3.568 3.568 0 0 1 1.288-1.106 3.843 3.843 0 0 1 1.757-.382 3.519 3.519 0 0 1 3.058 1.561 7.074 7.074 0 0 1 1.093 4.127v.205a5.83 5.83 0 0 1-1.1 3.695 3.63 3.63 0 0 1-3.024 1.405 4.2 4.2 0 0 1-1.719-.327 3.308 3.308 0 0 1-1.258-.975v3.652l1.6.275v1.243h-5.12zm8.684-7.929a5.658 5.658 0 0 0-.7-2.974 2.284 2.284 0 0 0-2.095-1.155 2.575 2.575 0 0 0-1.409.373 2.783 2.783 0 0 0-.95 1.017v5.159a2.661 2.661 0 0 0 .944 1.014 2.7 2.7 0 0 0 1.435.357 2.391 2.391 0 0 0 2.082-1 4.357 4.357 0 0 0 .7-2.594z" class="prefix__cls-4" data-name="Path 65" transform="translate(-1337.778 -153.568)"/>
            <path id="prefix__Path_66" d="M1658.43 190.656q-.088-.431-.137-.773c-.033-.229-.055-.458-.068-.685a4.679 4.679 0 0 1-1.395 1.189 3.994 3.994 0 0 1-4.3-.333 2.969 2.969 0 0 1-.861-2.276 2.638 2.638 0 0 1 1.218-2.325 5.935 5.935 0 0 1 3.344-.818h1.986V183.4a1.913 1.913 0 0 0-.586-1.473 2.311 2.311 0 0 0-1.635-.544 3.976 3.976 0 0 0-1.277.187 2.4 2.4 0 0 0-.892.508l-.205 1.117h-1.487v-2.056a5.7 5.7 0 0 1 1.753-.925 6.917 6.917 0 0 1 2.23-.348 4.435 4.435 0 0 1 2.917.92 3.224 3.224 0 0 1 1.117 2.633v5.5c0 .129.012.262.024.393l.784.107v1.234zm-3.1-1.4a3.419 3.419 0 0 0 1.753-.461 2.844 2.844 0 0 0 1.135-1.106v-1.75h-2.055a2.92 2.92 0 0 0-1.875.549 1.645 1.645 0 0 0-.69 1.338 1.321 1.321 0 0 0 .43 1.063 2.01 2.01 0 0 0 1.3.365z" class="prefix__cls-4" data-name="Path 66" transform="translate(-1406.548 -153.571)"/>
            <path id="prefix__Path_67" d="M1726.045 184.582a2.171 2.171 0 0 0 1.453-.388 1.394 1.394 0 0 0 .436-1.12 1.478 1.478 0 0 0-.5-1.127 2.179 2.179 0 0 0-1.518-.459 2.41 2.41 0 0 0-1.527.479 1.435 1.435 0 0 0-.617 1.166h-1.83l-.021-.058a2.49 2.49 0 0 1 1.108-2.218 4.757 4.757 0 0 1 2.887-.856 4.7 4.7 0 0 1 2.908.8 2.673 2.673 0 0 1 1.041 2.276 2.2 2.2 0 0 1-.431 1.311 2.881 2.881 0 0 1-1.2.94 2.817 2.817 0 0 1 1.362.935 2.459 2.459 0 0 1 .47 1.522 2.736 2.736 0 0 1-1.14 2.33 4.938 4.938 0 0 1-3.011.842 5.193 5.193 0 0 1-2.974-.837 2.629 2.629 0 0 1-1.189-2.423l.019-.058h1.83a1.65 1.65 0 0 0 .647 1.292 2.877 2.877 0 0 0 3.289.064 1.515 1.515 0 0 0 .577-1.209 1.48 1.48 0 0 0-.5-1.244 2.545 2.545 0 0 0-1.57-.391h-1.844v-1.566z" class="prefix__cls-4" data-name="Path 67" transform="translate(-1466.205 -153.684)"/>
            <path id="prefix__Path_68" d="M1792.438 181.18a6.087 6.087 0 0 1 3.25.73 2.414 2.414 0 0 1 1.155 2.189 2.111 2.111 0 0 1-.446 1.326 2.773 2.773 0 0 1-1.273.892 2.825 2.825 0 0 1 1.546.914 2.326 2.326 0 0 1 .559 1.533 2.579 2.579 0 0 1-1.082 2.251 5.157 5.157 0 0 1-3.027.758h-6.441v-1.234l1.6-.274V182.7l-1.6-.274v-1.246h5.766zm-2.242 4.475h2.253a3.739 3.739 0 0 0 1.845-.363 1.189 1.189 0 0 0 .621-1.1 1.25 1.25 0 0 0-.621-1.136 3.606 3.606 0 0 0-1.855-.382h-2.239zm0 1.478v3.152h2.925a2.715 2.715 0 0 0 1.625-.406 1.518 1.518 0 0 0 0-2.336 2.692 2.692 0 0 0-1.625-.41z" class="prefix__cls-4" data-name="Path 68" transform="translate(-1521.485 -154.688)"/>
            <path id="prefix__Path_69" d="M1871.116 181.18v1.244l-1.6.274v5.981l.058.019 4.67-7.519h3.525v1.244l-1.6.274v7.568l1.6.274v1.234h-5.12v-1.234l1.6-.274v-5.99l-.058-.019-4.67 7.519H1866v-1.234l1.6-.274V182.7l-1.6-.275v-1.245h5.11z" class="prefix__cls-4" data-name="Path 69" transform="translate(-1589.012 -154.688)"/>
            <path id="prefix__Path_70" d="M1964.257 181.18v3.153h-1.657l-.149-1.655h-2.272v7.583l1.6.274v1.234h-5.12v-1.234l1.6-.274v-7.583h-2.23l-.149 1.655h-1.644v-3.153z" class="prefix__cls-4" data-name="Path 70" transform="translate(-1664.124 -154.688)"/>
            <path id="prefix__Path_71" d="M2036.05 181.18v1.244l-1.6.274v5.981l.058.019 4.67-7.519h3.525v1.244l-1.6.274v7.568l1.6.274v1.234h-5.12v-1.234l1.6-.274v-5.99l-.058-.019-4.67 7.519h-3.515v-1.234l1.6-.274V182.7l-1.6-.274v-1.244h5.11z" class="prefix__cls-4" data-name="Path 71" transform="translate(-1729.429 -154.688)"/>
            <path id="prefix__Path_72" d="M2124.926 190.556l1.6-.274v-2.6h-2.626l-2.505 4.112h-2.595v-1.234l1.39-.205 1.811-2.957a3.017 3.017 0 0 1-2.095-2.953 2.9 2.9 0 0 1 1.087-2.334 4.508 4.508 0 0 1 2.974-.907h6.071v1.244l-1.6.274v7.568l1.6.274v1.234h-5.112zm-3.073-6.1a1.669 1.669 0 0 0 .483 1.2 1.927 1.927 0 0 0 1.445.5h2.74V182.7h-2.545a2.2 2.2 0 0 0-1.585.523 1.669 1.669 0 0 0-.546 1.238z" class="prefix__cls-4" data-name="Path 72" transform="translate(-1804.226 -154.705)"/>
            <path id="prefix__Path_73" d="M2245.85 155.406a4.033 4.033 0 0 1 3.192 1.338 5.03 5.03 0 0 1 1.175 3.451v.226a5.444 5.444 0 0 1-1.273 3.73 4.871 4.871 0 0 1-6.931 0 5.433 5.433 0 0 1-1.273-3.73v-1.371a8.511 8.511 0 0 1 1.311-4.993 5.481 5.481 0 0 1 3.525-2.3 6.06 6.06 0 0 0 1.784-.538 1.093 1.093 0 0 0 .553-1.029h1.487l.021.059a2.457 2.457 0 0 1-.813 2.261 7.51 7.51 0 0 1-2.676.852 4.622 4.622 0 0 0-2.285 1.032 3.624 3.624 0 0 0-1.16 2.364l.039.049a4.461 4.461 0 0 1 1.454-1.008 4.532 4.532 0 0 1 1.87-.393zm-.391 1.508a2.431 2.431 0 0 0-2.081.94 3.842 3.842 0 0 0-.7 2.349v.219a4.583 4.583 0 0 0 .7 2.633 2.639 2.639 0 0 0 4.2 0 4.561 4.561 0 0 0 .715-2.633v-.222a3.751 3.751 0 0 0-.72-2.349 2.506 2.506 0 0 0-2.114-.938z" class="prefix__cls-4" data-name="Path 73" transform="translate(-1908.036 -128.306)"/>
            <path id="prefix__Path_74" d="M2315.612 181.18v1.244l-1.6.274v5.981l.06.019 4.677-7.519h3.524v1.244l-1.6.274v7.568l1.6.274v1.234h-5.121v-1.234l1.6-.274v-5.99l-.06-.019-4.67 7.519h-3.522v-1.234l1.6-.274V182.7l-1.6-.274v-1.244h5.112z" class="prefix__cls-4" data-name="Path 74" transform="translate(-1967.424 -154.688)"/>
            <path id="prefix__Path_75" d="M2402.275 184.582a2.178 2.178 0 0 0 1.454-.388 1.41 1.41 0 0 0 .434-1.12 1.473 1.473 0 0 0-.5-1.127 2.168 2.168 0 0 0-1.514-.461 2.41 2.41 0 0 0-1.527.479 1.435 1.435 0 0 0-.617 1.166h-1.83l-.019-.058a2.482 2.482 0 0 1 1.106-2.218 4.754 4.754 0 0 1 2.887-.855 4.7 4.7 0 0 1 2.908.8 2.673 2.673 0 0 1 1.041 2.276 2.193 2.193 0 0 1-.43 1.311 2.9 2.9 0 0 1-1.2.94 2.825 2.825 0 0 1 1.361.935 2.451 2.451 0 0 1 .47 1.522 2.736 2.736 0 0 1-1.14 2.33 4.928 4.928 0 0 1-3 .842 5.188 5.188 0 0 1-2.973-.837 2.633 2.633 0 0 1-1.189-2.423l.019-.058h1.83a1.65 1.65 0 0 0 .647 1.292 2.877 2.877 0 0 0 3.289.064 1.517 1.517 0 0 0 .579-1.209 1.484 1.484 0 0 0-.5-1.244 2.553 2.553 0 0 0-1.572-.391h-1.841v-1.566z" class="prefix__cls-4" data-name="Path 75" transform="translate(-2041.903 -153.684)"/>
            <path id="prefix__Path_76" d="M2462.8 182.424v-1.244h5.12v1.244l-1.6.274v3.064h4.708V182.7l-1.6-.274v-1.246h5.129v1.244l-1.6.274v7.568l1.6.274v1.234h-5.129v-1.234l1.6-.274v-3h-4.708v3l1.6.274v1.234h-5.12v-1.234l1.6-.274V182.7z" class="prefix__cls-4" data-name="Path 76" transform="translate(-2097.08 -154.688)"/>
            <path id="prefix__Path_77" d="M2553.206 190.863a4.468 4.468 0 0 1-3.519-1.473 5.546 5.546 0 0 1-1.307-3.823v-.431a5.447 5.447 0 0 1 1.338-3.763 4.137 4.137 0 0 1 3.188-1.5 4.019 4.019 0 0 1 3.235 1.292 5.116 5.116 0 0 1 1.1 3.446v1.2h-6.872l-.03.049a4.177 4.177 0 0 0 .773 2.51 2.461 2.461 0 0 0 2.082.984 4.862 4.862 0 0 0 1.719-.278 4 4 0 0 0 1.277-.769l.754 1.252a4.637 4.637 0 0 1-1.5.926 6.006 6.006 0 0 1-2.235.376zm-.3-9.477a2.09 2.09 0 0 0-1.655.818 3.866 3.866 0 0 0-.843 2.052l.021.049h4.884v-.253a2.957 2.957 0 0 0-.606-1.9 2.15 2.15 0 0 0-1.8-.767z" class="prefix__cls-4" data-name="Path 77" transform="translate(-2169.937 -153.573)"/>
            <path id="prefix__Path_78" d="M2622.507 189.334a2.6 2.6 0 0 0 1.689-.595 1.811 1.811 0 0 0 .73-1.454h1.732l.019.059a2.971 2.971 0 0 1-1.219 2.432 4.461 4.461 0 0 1-2.951 1.062 4.27 4.27 0 0 1-3.528-1.508 5.842 5.842 0 0 1-1.219-3.788v-.412a5.805 5.805 0 0 1 1.224-3.773 4.27 4.27 0 0 1 3.524-1.512 5.909 5.909 0 0 1 2.287.421 4.635 4.635 0 0 1 1.679 1.155l.088 2.349h-1.536l-.422-1.664a2.546 2.546 0 0 0-.88-.538 3.362 3.362 0 0 0-1.215-.207 2.323 2.323 0 0 0-2.168 1.093 5.143 5.143 0 0 0-.651 2.676v.412a5.207 5.207 0 0 0 .645 2.707 2.333 2.333 0 0 0 2.172 1.085z" class="prefix__cls-4" data-name="Path 78" transform="translate(-2229.001 -153.552)"/>
            <path id="prefix__Path_79" d="M2694.572 190.656q-.089-.431-.138-.773c-.033-.229-.055-.458-.068-.685a4.677 4.677 0 0 1-1.395 1.189 3.994 3.994 0 0 1-4.3-.333 2.968 2.968 0 0 1-.861-2.276 2.638 2.638 0 0 1 1.218-2.325 5.935 5.935 0 0 1 3.344-.818h1.988V183.4a1.9 1.9 0 0 0-.595-1.473 2.331 2.331 0 0 0-1.635-.544 3.975 3.975 0 0 0-1.277.187 2.4 2.4 0 0 0-.892.508l-.205 1.117h-1.487v-2.056a5.7 5.7 0 0 1 1.753-.925 6.918 6.918 0 0 1 2.23-.348 4.434 4.434 0 0 1 2.917.92 3.224 3.224 0 0 1 1.116 2.633v5.5a3.878 3.878 0 0 0 .025.393l.782.107v1.234zm-3.1-1.4a3.419 3.419 0 0 0 1.753-.461 2.858 2.858 0 0 0 1.136-1.106v-1.75h-2.061a2.92 2.92 0 0 0-1.875.549 1.649 1.649 0 0 0-.69 1.338 1.321 1.321 0 0 0 .43 1.063 2.017 2.017 0 0 0 1.303.365z" class="prefix__cls-4" data-name="Path 79" transform="translate(-2288.636 -153.571)"/>
            <path id="prefix__Path_80" d="M1123.054 367.477l3.271-.632v-22l-3.271-.632v-3.723h23.253v7.771h-4.719l-.253-3.033h-8.778v6.613h5.265q5.33 0 8.426 2.6a8.6 8.6 0 0 1 3.093 6.937 8.89 8.89 0 0 1-3.122 7.088 12.453 12.453 0 0 1-8.4 2.685h-14.769zm9.5-10.9v9.854h5.265a5.307 5.307 0 0 0 3.992-1.444 5.033 5.033 0 0 0 1.4-3.653 4.532 4.532 0 0 0-1.39-3.433 5.581 5.581 0 0 0-4-1.328z" class="prefix__cls-4" data-name="Path 80" transform="translate(-956.522 -290.312)"/>
            <path id="prefix__Path_81" d="M1323.768 414.242a10.269 10.269 0 0 1-7.88-3.159 11.286 11.286 0 0 1-2.948-8.029v-.841a12.467 12.467 0 0 1 2.791-8.362 10.4 10.4 0 0 1 14.649-.491 10.671 10.671 0 0 1 2.548 7.519v3.35h-13.607l-.042.126a5.957 5.957 0 0 0 1.506 3.707 4.692 4.692 0 0 0 3.634 1.454 11.806 11.806 0 0 0 3.391-.412 15.564 15.564 0 0 0 2.948-1.295l1.667 3.8a12.1 12.1 0 0 1-3.655 1.875 15.553 15.553 0 0 1-5 .761zm-.549-18.915a3.2 3.2 0 0 0-2.7 1.305 6.8 6.8 0 0 0-1.222 3.434l.064.106h7.54v-.549a4.913 4.913 0 0 0-.916-3.122 3.334 3.334 0 0 0-2.765-1.174z" class="prefix__cls-4" data-name="Path 81" transform="translate(-1118.18 -332.955)"/>
            <path id="prefix__Path_82" d="M1461.21 394.767v-3.707h8.931l.3 2.654a7.328 7.328 0 0 1 2.422-2.275 6.554 6.554 0 0 1 3.286-.8 7.581 7.581 0 0 1 6.572 3.307 14.784 14.784 0 0 1 2.339 8.7v.446a13.09 13.09 0 0 1-2.339 8.131 7.73 7.73 0 0 1-6.528 3.075 7.3 7.3 0 0 1-3.18-.663 6.541 6.541 0 0 1-2.379-1.949v6.588l2.974.632v3.708h-12.068v-3.708l2.974-.632V395.4zm17.693 7.88a11.04 11.04 0 0 0-1.073-5.225 3.5 3.5 0 0 0-3.286-2 4.636 4.636 0 0 0-2.37.569 4.062 4.062 0 0 0-1.548 1.622v9.987a3.766 3.766 0 0 0 1.548 1.473 5.223 5.223 0 0 0 2.411.507 3.531 3.531 0 0 0 3.271-1.748 9.246 9.246 0 0 0 1.041-4.74z" class="prefix__cls-4" data-name="Path 82" transform="translate(-1244.405 -333.006)"/>
            <path id="prefix__Path_83" d="M1646.158 414.242a10.269 10.269 0 0 1-7.88-3.159 11.286 11.286 0 0 1-2.948-8.029v-.841a12.467 12.467 0 0 1 2.791-8.362 10.4 10.4 0 0 1 14.649-.491 10.67 10.67 0 0 1 2.548 7.519v3.35h-13.605l-.043.126a5.958 5.958 0 0 0 1.506 3.707 4.693 4.693 0 0 0 3.634 1.454 11.807 11.807 0 0 0 3.391-.412 15.56 15.56 0 0 0 2.948-1.3l1.664 3.791a12.074 12.074 0 0 1-3.655 1.875 15.552 15.552 0 0 1-5 .772zm-.549-18.915a3.2 3.2 0 0 0-2.7 1.305 6.817 6.817 0 0 0-1.222 3.434l.064.106h7.541v-.549a4.907 4.907 0 0 0-.917-3.122 3.336 3.336 0 0 0-2.77-1.175z" class="prefix__cls-4" data-name="Path 83" transform="translate(-1392.637 -332.955)"/>
            <path id="prefix__Path_84" d="M1784.924 397.808l-3.264-.632v-3.706h19.974v8.03h-3.866l-.253-3.263h-6.438v13.711l3.271.632v3.686h-12.679v-3.686l3.263-.632z" class="prefix__cls-4" data-name="Path 84" transform="translate(-1517.211 -335.415)"/>
            <path id="prefix__Path_85" d="M1940.417 413.854a10.914 10.914 0 0 1-.446-1.169 9.1 9.1 0 0 1-.3-1.212 8.476 8.476 0 0 1-2.664 2.044 7.983 7.983 0 0 1-3.592.779 7.523 7.523 0 0 1-5.318-1.823 6.422 6.422 0 0 1-1.969-4.96 5.64 5.64 0 0 1 2.569-4.95q2.569-1.748 7.541-1.748h3.139v-2.23a3.357 3.357 0 0 0-.949-2.55 3.91 3.91 0 0 0-2.8-.905 6.659 6.659 0 0 0-1.875.242 4.915 4.915 0 0 0-1.326.58l-.4 2.443h-4.633l.021-5.055a17.224 17.224 0 0 1 3.866-1.916 14.038 14.038 0 0 1 4.758-.779 10.816 10.816 0 0 1 6.876 2.074 7.071 7.071 0 0 1 2.643 5.908v9.414c0 .351 0 .681.01.99a7.227 7.227 0 0 0 .074.892l1.878.25v3.686zm-5.329-4.106a5.324 5.324 0 0 0 2.527-.595 4.881 4.881 0 0 0 1.769-1.506v-3.481h-3.139a4.3 4.3 0 0 0-2.974.916 2.869 2.869 0 0 0-1.011 2.2 2.285 2.285 0 0 0 .74 1.818 3.054 3.054 0 0 0 2.088.648z" class="prefix__cls-4" data-name="Path 85" transform="translate(-1640.202 -333.01)"/>
            <path id="prefix__Path_86" d="M2154.11 344.2v-3.71h12.7v3.71l-3.284.632v8.846h12.51v-8.846l-3.286-.632v-3.71h12.7v3.71l-3.286.632v22l3.286.632v3.686h-12.7v-3.674l3.286-.632v-8.437h-12.51v8.426l3.284.632v3.686h-12.7v-3.674l3.271-.632v-22z" class="prefix__cls-4" data-name="Path 86" transform="translate(-1834.286 -290.312)"/>
            <path id="prefix__Path_87" d="M2376.468 414.242a10.269 10.269 0 0 1-7.88-3.159 11.286 11.286 0 0 1-2.948-8.029v-.841a12.466 12.466 0 0 1 2.791-8.362 10.4 10.4 0 0 1 14.649-.491 10.671 10.671 0 0 1 2.548 7.519v3.35h-13.607l-.042.126a5.946 5.946 0 0 0 1.506 3.707 4.7 4.7 0 0 0 3.634 1.454 11.807 11.807 0 0 0 3.391-.412 15.56 15.56 0 0 0 2.948-1.3l1.664 3.791a12.1 12.1 0 0 1-3.654 1.875 15.553 15.553 0 0 1-5 .772zm-.549-18.915a3.2 3.2 0 0 0-2.7 1.305 6.8 6.8 0 0 0-1.222 3.434l.064.106h7.539v-.549a4.913 4.913 0 0 0-.916-3.122 3.334 3.334 0 0 0-2.765-1.174z" class="prefix__cls-4" data-name="Path 87" transform="translate(-2014.366 -332.955)"/>
            <path id="prefix__Path_88" d="M2526.812 393.47a13.259 13.259 0 0 1 7.087 1.6 5.263 5.263 0 0 1 2.538 4.758 4.254 4.254 0 0 1-1.063 2.844 6.638 6.638 0 0 1-3.023 1.9 7.159 7.159 0 0 1 3.928 1.906 4.594 4.594 0 0 1 1.338 3.271 5.5 5.5 0 0 1-2.412 4.865q-2.412 1.643-6.92 1.635h-14.273v-3.669l3.286-.632v-14.14l-3.3-.632v-3.706h12.807zm-3.391 9.288h3.727a4.181 4.181 0 0 0 2.379-.568 1.878 1.878 0 0 0 .758-1.622 2.038 2.038 0 0 0-.862-1.821 4.728 4.728 0 0 0-2.612-.58h-3.391zm0 4v4.823h4.865a3.946 3.946 0 0 0 2.4-.595 2.11 2.11 0 0 0 .781-1.784 2.244 2.244 0 0 0-.744-1.811 3.752 3.752 0 0 0-2.434-.632z" class="prefix__cls-4" data-name="Path 88" transform="translate(-2140.668 -335.415)"/>
            <path id="prefix__Path_89" d="M2696.219 393.47v7.351h4.271a11.386 11.386 0 0 1 7.257 2.081 6.7 6.7 0 0 1 2.621 5.528 6.973 6.973 0 0 1-2.632 5.687 11.128 11.128 0 0 1-7.247 2.142h-13.709v-3.68l3.286-.632v-14.139l-3.286-.632v-3.706h9.435zm3.286 0v3.707l-3.286.632v-4.339zm-3.286 11.795v6.3h4.271a4.059 4.059 0 0 0 2.825-.853 2.9 2.9 0 0 0 .928-2.242 3.077 3.077 0 0 0-.916-2.318 3.954 3.954 0 0 0-2.837-.885zm14.218-8.088v-3.707h9.435v18.472l2.95.638v3.686h-12.072v-3.686l2.973-.632v-14.14z" class="prefix__cls-4" data-name="Path 89" transform="translate(-2287.759 -335.415)"/>
            <path id="prefix__Path_90" d="M2909.094 397.925l3.235-.755v-3.72h-3.289z" class="prefix__cls-4" data-name="Path 90" transform="translate(-2476.974 -335.398)"/>
        </g>
    </g>
</svg>
